<?xml version="1.0" encoding="utf-8"?>
<!-- Generator: Adobe Illustrator 27.5.0, SVG Export Plug-In . SVG Version: 6.00 Build 0)  -->
<svg version="1.1" xmlns="http://www.w3.org/2000/svg" xmlns:xlink="http://www.w3.org/1999/xlink" x="0px" y="0px"
	 viewBox="0 0 750 500" style="enable-background:new 0 0 750 500;" xml:space="preserve">
<g id="BACKGROUND">
	<rect style="fill:#FFFFFF;" width="750" height="500"/>
</g>
<g id="OBJECTS">
	<g>
		<g>
			<path style="fill:#959DFC;" d="M104.588,79.831c0,0-44.421,26.81-36.245,93.13c8.176,66.32,48.322,111.109,17.621,143.746
				C55.261,349.343-6.874,394.34,55.261,472.732h619.272c0,0,41.323-45.781,13.525-145.966
				c-27.797-100.185,43.07-166.505-50.411-203.192S507.83,132.04,382.106,91.119S178.441,30.444,104.588,79.831z"/>
			<path style="fill:#959DFC;" d="M57.434,259.04c0,0,5.431,10.228,5.884,23.353c0.453,13.126-18.557,28.967-9.957,32.135
				c8.6,3.168,22.178-12.673,24.441-31.23c2.263-18.557-3.141-36.958-13.338-35.904C54.265,248.448,57.434,259.04,57.434,259.04z"/>
			<path style="fill:#959DFC;" d="M364.09,73.369c1.246,1.46,2.905,2.503,4.71,3.156c5.817,2.103,24.422,8.551,43.414,12.184
				c22.918,4.383,29.906,1.394,31.674-4.24c1.768-5.634-9.434-7.604-18.26-8.825c-8.826-1.222-34.797-5.295-46.422-11.405
				C368.792,58.764,357.964,66.194,364.09,73.369z"/>
			<path style="fill:#959DFC;" d="M692.922,281.969c-0.856,2.336-1.183,4.832-1.092,7.318c0.209,5.733,1.012,19.865,4.002,31.125
				c3.847,14.483,5.431,18.782,11.315,18.896c5.884,0.114,7.015-4.639,4.752-13.691c-2.263-9.052-5.431-18.557-6.563-33.266
				c-1.132-14.71-2.883-16.294-7.665-15.615C695.281,277.076,693.803,279.565,692.922,281.969z"/>
		</g>
		<g>
			<g>
				<g>
					<path style="fill:#EBB04B;" d="M411.028,150.03c-0.338,0-0.611-0.273-0.611-0.611v-33.025c0-0.338,0.273-0.611,0.611-0.611
						c0.337,0,0.611,0.273,0.611,0.611v33.025C411.639,149.757,411.366,150.03,411.028,150.03z"/>
				</g>
				<path style="fill:#EBB04B;" d="M407.447,167.231c0,0-0.995-17.408,3.581-17.805c4.576-0.398,4.874,17.805,4.874,17.805h-2.885
					l-0.696-5.625l-0.692,5.625H407.447z"/>
				<path style="fill:#FFFAE3;" d="M234.052,91.161l-13.608,24.868c0,0,2.684,11.737,21.261,9.947l4.784-15.396l7.759-41.899
					l18.236-42.109c0,0-4.532-11.367-23.354-5.418l-7.425,48.607L234.052,91.161z"/>
				<path style="fill:#070C21;" d="M360.266,91.363l-49.921,22.867c-0.839,0.384-0.824,1.582,0.024,1.945l49.921,21.361
					c0.266,0.114,0.567,0.114,0.833,0.002l50.441-21.361c0.853-0.361,0.868-1.566,0.024-1.948l-50.441-22.867
					C360.868,91.234,360.546,91.235,360.266,91.363z"/>
				<path style="fill:#2D231A;" d="M390.125,136.321c-2.387-15.915-17.308-20.491-26.459-21.088c0,0-19.695-0.597-28.648,14.523
					c-8.952,15.12-3.382,31.632-3.382,31.632s0.199-3.382,4.974-9.151c4.775-5.769,10.942-12.136,10.942-12.136
					c-1.591,7.56-7.162,11.937-7.162,11.937c10.743-0.796,23.276-20.889,23.276-20.889c4.973,8.355,17.507,14.523,17.507,14.523
					c-1.989-2.586-4.178-9.748-4.178-9.748c6.565,6.963,11.738,23.276,11.738,23.276s0.282,0.725,0.279,2.587l0.002,0
					C389.014,161.786,392.513,152.236,390.125,136.321z"/>
				<path style="fill:#E37565;" d="M331.637,161.387c0,0,1.194,10.146,3.979,19.496c2.785,9.35,6.963,15.915,23.077,16.313
					c16.114,0.398,22.878-6.565,27.255-20.292c4.377-13.727,2.785-17.706,2.785-17.706s-5.172-16.313-11.738-23.276
					c0,0,2.188,7.162,4.178,9.748c0,0-12.533-6.167-17.507-14.523c0,0-12.533,20.093-23.276,20.889c0,0,5.57-4.377,7.162-11.937
					c0,0-6.167,6.366-10.942,12.136C331.835,158.005,331.637,161.387,331.637,161.387z"/>
				<path style="fill:#DBECF5;" d="M359.289,167.555c-4.51-0.564-17.362,6.358-24.476,10.444c0.252,0.962,0.517,1.928,0.802,2.885
					c2.785,9.35,6.963,15.915,23.077,16.313c14.556,0.359,21.474-5.307,25.903-16.519
					C377.507,176.27,363.915,168.133,359.289,167.555z"/>
				<path style="fill:#E37565;" d="M394.098,168.848c-1.79-4.377-5.469-2.105-5.469-2.105s-0.05,0.065-0.135,0.18
					c-0.439,2.535-1.214,5.802-2.547,9.983c-0.667,2.092-1.399,4.007-2.202,5.782c0.265,0.216,0.569,0.408,0.934,0.56
					C391.278,186.009,395.889,173.225,394.098,168.848z"/>
				<path style="fill:#E37565;" d="M335.615,180.884c-1.508-5.064-2.546-10.347-3.184-14.14l-0.001-0.001
					c0,0-3.678-2.271-5.469,2.105c-1.79,4.377,2.82,17.16,9.417,14.4C336.109,182.482,335.857,181.694,335.615,180.884z"/>
				<path style="fill:#2D2D2D;" d="M348.348,161.288c0,2.967-1.18,5.372-2.636,5.372c-1.456,0-2.636-2.405-2.636-5.372
					c0-2.966,1.18-5.371,2.636-5.371C347.167,155.917,348.348,158.322,348.348,161.288z"/>
				<path style="fill:#2D2D2D;" d="M377.194,161.288c0,2.967-1.18,5.372-2.636,5.372c-1.456,0-2.636-2.405-2.636-5.372
					c0-2.966,1.18-5.371,2.636-5.371C376.014,155.917,377.194,158.322,377.194,161.288z"/>
				<g>
					<path style="fill:#2D2D2D;" d="M373.061,148.942c0.182-0.059,0.37-0.101,0.557-0.14c0.089-0.018,0.178-0.035,0.267-0.05
						c0.054-0.009,0.108-0.017,0.161-0.026c0.222-0.036-0.125,0.009,0.007-0.001c0.259-0.02,0.516-0.05,0.777-0.057
						c0.309-0.008,0.618,0.001,0.925,0.03c0.082,0.008,0.163,0.017,0.245,0.027c-0.189-0.024-0.009,0.001,0.077,0.016
						c0.171,0.03,0.34,0.067,0.508,0.11c0.161,0.042,0.321,0.09,0.478,0.144c0.087,0.03,0.173,0.063,0.258,0.096
						c0.098,0.038-0.022-0.01-0.035-0.015c0.062,0.027,0.123,0.055,0.184,0.085c0.162,0.078,0.32,0.163,0.473,0.256
						c0.085,0.051,0.169,0.105,0.251,0.161c0.036,0.024,0.071,0.049,0.107,0.074c0.13,0.09-0.015-0.017,0.06,0.043
						c0.861,0.683,1.377,1.484,1.822,2.504c0.198,0.454,0.862,0.558,1.253,0.329c0.468-0.274,0.527-0.798,0.329-1.253
						c-0.824-1.887-2.285-3.39-4.251-4.059c-1.327-0.451-2.768-0.465-4.138-0.228c-0.269,0.047-0.542,0.101-0.802,0.186
						c-0.47,0.153-0.775,0.634-0.64,1.127C372.061,148.763,372.589,149.095,373.061,148.942L373.061,148.942z"/>
				</g>
				<g>
					<path style="fill:#2D2D2D;" d="M341.479,150.809c0.155-0.22-0.163,0.188,0.028-0.037c0.151-0.178,0.303-0.353,0.466-0.52
						c0.237-0.243,0.488-0.47,0.749-0.687c0.044-0.037,0.186-0.147,0.061-0.051c0.087-0.067,0.176-0.131,0.266-0.195
						c0.178-0.126,0.362-0.244,0.549-0.356c0.786-0.467,1.646-0.793,2.545-0.903c1.291-0.158,2.551,0.101,3.751,0.573
						c0.461,0.181,1.006-0.199,1.127-0.64c0.143-0.52-0.177-0.945-0.64-1.127c-1.986-0.781-4.224-0.941-6.242-0.18
						c-1.363,0.514-2.603,1.343-3.596,2.41c-0.23,0.248-0.452,0.51-0.646,0.787c-0.284,0.405-0.073,1.018,0.329,1.253
						C340.683,151.405,341.194,151.215,341.479,150.809L341.479,150.809z"/>
				</g>
				<path style="fill:#2D2D2D;" d="M359.289,167.555c0.018-1.346,0.197-2.538,0.35-3.755l0.284-1.818
					c0.112-0.613,0.205-1.23,0.403-1.887c0.608,1.215,0.695,2.582,0.522,3.876c-0.101,0.648-0.256,1.289-0.513,1.896
					C360.086,166.473,359.765,167.061,359.289,167.555z"/>
				<g>
					<path style="fill:#2D2D2D;" d="M329.767,171.931c0.004-0.106,0.046-0.298,0.001-0.076c0.018-0.09,0.032-0.181,0.055-0.271
						c0.013-0.049,0.027-0.097,0.042-0.145c0.074-0.246-0.059,0.175,0.026-0.064c0.033-0.091,0.026-0.019-0.043,0.005
						c-0.071,0.024-0.106,0.032-0.185,0.039c0.057-0.005,0.129,0.036,0.018,0.002c-0.217-0.066-0.093-0.027-0.277-0.159
						c0.04,0.029,0.069,0.072,0.102,0.108c-0.031-0.034-0.116-0.185-0.024-0.019c0.031,0.056,0.068,0.11,0.099,0.166
						c0.081,0.143,0.153,0.291,0.221,0.441c0.037,0.081,0.073,0.162,0.108,0.244c-0.089-0.206,0.023,0.06,0.045,0.116
						c0.089,0.222,0.172,0.447,0.253,0.672c0.659,1.834,1.175,3.721,1.669,5.605c0.125,0.478,0.249,0.957,0.367,1.437
						c0.28,1.145,2.047,0.66,1.767-0.487c-0.37-1.514-0.779-3.02-1.221-4.514c-0.319-1.077-0.652-2.156-1.068-3.201
						c-0.274-0.69-0.593-1.666-1.285-2.061c-0.751-0.43-1.698-0.069-2.11,0.648c-0.259,0.451-0.372,0.997-0.393,1.513
						C327.888,173.11,329.72,173.108,329.767,171.931L329.767,171.931z"/>
				</g>
				<g>
					<path style="fill:#2D2D2D;" d="M393.13,172.13c-0.109-1.169-0.885-2.584-2.237-2.542c-0.902,0.028-1.394,1.031-1.723,1.738
						c-0.956,2.052-1.594,4.263-2.217,6.433c-0.171,0.594-0.338,1.189-0.496,1.787c-0.301,1.141,1.466,1.628,1.767,0.487
						c0.337-1.281,0.709-2.554,1.103-3.819c0.313-1.004,0.642-2.005,1.019-2.987c0.083-0.217,0.169-0.434,0.259-0.649
						c-0.075,0.179,0.038-0.085,0.058-0.131c0.048-0.108,0.097-0.215,0.148-0.322c0.141-0.293,0.306-0.561,0.479-0.835
						c-0.143,0.227-0.069,0.012,0.013,0.005c0.005-0.001,0.051-0.047,0.05-0.045c-0.005,0.012-0.214,0.147-0.1,0.084
						c-0.116,0.065-0.251,0.057-0.37,0.078c-0.079,0.014,0.11,0.063,0.069,0.03c0.183,0.145,0.248,0.322,0.287,0.477
						c0.025,0.099,0.044,0.202,0.072,0.3c0.054,0.192-0.013-0.113-0.011-0.09c0.046,0.493,0.388,0.916,0.916,0.916
						C392.674,173.046,393.176,172.626,393.13,172.13L393.13,172.13z"/>
				</g>
				<path style="fill:#142142;" d="M333.499,132.615l-1.863-21.029c0,0,30.073-16.313,58.141,0.663l-1.957,16.737
					c0,0-16.445-6.525-27.494,0.77C360.326,129.756,343.32,122.344,333.499,132.615z"/>
				<path style="fill:#E37565;" d="M358.693,197.197c-5.82-0.144-10.077-1.095-13.279-2.689v15.885c0,0,1.51,15.915,14.291,34.749
					c0,0,13.208-11.406,15.647-36.075v-15.736C371.261,196.065,365.92,197.376,358.693,197.197z"/>
				<path style="fill:#2D2D2D;" d="M375.352,193.331c-4.091,2.734-9.432,4.044-16.659,3.866c-5.82-0.144-10.077-1.095-13.279-2.689
					v15.885c15.758-1.502,25.554-7.476,29.939-10.842V193.331z"/>
				<path style="fill:#142142;" d="M467.713,210.394c0,0,3.979-29.711-4.775-71.886c0,0-37.633,46.51-73.923,70.559
					c0,0-0.827-3.448-7.245-1.724c0,0-3.087-4.708-6.418,1.724c-2.439,24.669-15.647,36.075-15.647,36.075
					c-12.781-18.833-14.291-34.749-14.291-34.749s-1.575-1.592-7.411-1.326c0,0-2.122-5.57-9.151-3.714
					c0,0-17.109-14.722-26.26-32.229c-9.151-17.507-25.067-47.149-25.067-47.149s-17.067,40.783-10.921,89.723
					c0,0,31.938,26.658,38.737,63.661c0,0-5.402,146.023-21.981,193.372h157.297c0,0-24.669-99.471-21.486-195.759
					C419.171,276.973,435.086,243.285,467.713,210.394z"/>
				<path style="fill:#EAE3C3;" d="M248.883,97.651l5.365-28.971l5.272-12.174c-4.539-0.626-10.283-2.275-14.818-6.368
					l-2.997,19.621l-7.653,21.401l-3.05,5.574C236.077,96.014,242.447,95.861,248.883,97.651z"/>
				<path style="fill:#E37565;" d="M240.063,57.142c0,0-3.918,1.591-5.311,4.576c-1.393,2.984,0.536,7.56,2.656,13.528
					s8.286,8.753,10.276,6.963c1.989-1.791,2.387-3.581-1.79-8.356c-1.989-3.91-2.188-10.942-2.188-10.942
					S243.459,55.006,240.063,57.142z"/>
				<path style="fill:#E37565;" d="M237.407,75.246c-1.309-3.687-2.543-6.841-2.969-9.418h0c-5.685,2.129-3.069,8.025-3.069,8.025
					c2.586,7.759,6.963,13.926,10.335,13.727c3.372-0.199,3.579-4.91,3.579-4.911C242.625,82.231,238.948,79.586,237.407,75.246z"/>
				<path style="fill:#E37565;" d="M241.705,87.58c-2.895,0.171-6.527-4.355-9.134-10.547c-0.622,0.743-1.381,1.895-1.802,3.485
					c-0.792,2.984,0.497,5.878,1.395,7.067c0.897,1.189,6.048,4.77,7.899,4.272c1.559-0.419,2.982-1.9,2.271-4.377
					C242.137,87.531,241.929,87.567,241.705,87.58z"/>
				<path style="fill:#E37565;" d="M232.163,87.585c-0.347-0.46-0.75-1.178-1.071-2.054c-0.631,0.351-1.368,0.971-1.812,2.054
					c-0.895,2.184,0.298,4.372,2.984,6.162c2.686,1.79,4.56,2.774,5.761,1.437c0.819-0.912,1.205-2.229,1.061-3.351
					C236.825,91.375,232.933,88.604,232.163,87.585z"/>
				<path style="fill:#E37565;" d="M266.074,176.627c2.724-29.785,11.451-50.651,11.451-50.651s-9.392-20.889-12.256-33.223
					c-2.864-12.334-2.864-12.334-1.869-19.894c0.995-7.56-3.581-13.329-8.554-16.114c-4.974-2.785-7.162,0.796-12.334,3.382
					c-5.173,2.586-0.995,6.963,1.989,6.565c2.984-0.398,6.366-0.995,6.366-0.995l3.382,2.984l-7.759,41.899L266.074,176.627z"/>
				<polygon style="fill:#2A3E68;" points="359.705,245.142 359.682,273.594 359.534,302.045 359.038,358.944 358.259,415.84 
					357.769,444.286 357.151,472.732 357.171,444.28 357.32,415.829 357.818,358.93 358.599,302.034 359.089,273.587 				"/>
				<path style="fill:#E37565;" d="M549.677,77.5c-3.183-1.591-12.467,7.427-12.467,7.427c10.345-10.875,12.732-18.568,9.019-19.098
					c-3.714-0.531-15.12,12.202-15.12,12.202c11.141-15.915,10.875-20.425,7.692-21.486c-3.183-1.061-15.65,15.915-15.65,15.915
					c7.162-11.671,7.162-17.507,4.509-18.303c-2.653-0.796-17.242,21.486-17.242,21.486s1.857-8.488,2.653-10.875
					c0.796-2.387-0.265-5.836-3.448-4.775c-3.183,1.061-10.345,16.711-10.345,22.016c0,5.305-1.591,13.174-1.591,13.174
					l-34.749,43.324c3.068,14.782,4.569,28.023,5.228,39l47.293-68.177c12.202-3.448,21.751-12.998,27.321-18.17
					C548.351,85.988,552.86,79.092,549.677,77.5z"/>
				<line style="fill:none;stroke:#2D2D2D;stroke-miterlimit:10;" x1="328.851" y1="205.354" x2="324.872" y2="207.542"/>
				<line style="fill:none;stroke:#2D2D2D;stroke-miterlimit:10;" x1="338.003" y1="209.067" x2="331.637" y2="210.394"/>
				<line style="fill:none;stroke:#2D2D2D;stroke-miterlimit:10;" x1="389.015" y1="209.067" x2="390.959" y2="214.505"/>
				<path style="fill:#2A3E68;" d="M419.171,276.973c-0.794-4.039-0.82-8.174-0.603-12.261c0.152-2.044,0.338-4.086,0.68-6.107
					c0.305-2.025,0.762-4.028,1.316-6.003c-0.085,2.052-0.224,4.084-0.369,6.111l-0.409,6.075l-0.342,6.076
					C419.358,272.893,419.237,274.923,419.171,276.973z"/>
				<circle style="fill:#FFD9A1;" cx="357.151" cy="300.846" r="11.738"/>
				<path style="fill:#2A3E68;" d="M305.341,279.36c-0.15-3.749,0.03-7.462,0.262-11.172c0.265-3.709,0.589-7.403,1.166-11.109
					c0.389,3.736,0.283,7.474,0.052,11.192C306.548,271.987,306.148,275.695,305.341,279.36z"/>
				<circle style="fill:#EBB04B;" cx="357.151" cy="300.846" r="9.791"/>
				<path style="fill:#EBB04B;" d="M357.101,289.108c0,0,31.88-41.082,24.669-81.765l-0.702-0.789
					c-1.096-0.996-3.341-2.074-5.716,2.513c0,0,0.45,32.396-17.057,64.375c0,0-7.379-25.015-8.714-47.533
					c-3.576-9.282-4.168-15.516-4.168-15.516s-0.817-0.813-3.415-1.179C341.998,209.216,339.197,257.676,357.101,289.108z"/>
				<g>
					<path style="fill:#070C21;" d="M304.423,299.354l2.345-42.275c-11.29-27.93-30.21-46.238-41.325-55.198
						c0.198,4.513,0.57,9.127,1.16,13.818c0,0,31.938,26.658,38.737,63.661C305.341,279.36,305.057,287.01,304.423,299.354
						L304.423,299.354z"/>
					<path style="fill:#070C21;" d="M357.818,358.93c-0.713,47.907-14.45,87.917-26.364,113.802h25.756L357.818,358.93z"/>
					<path style="fill:#070C21;" d="M420.564,252.602c-1.21,5.868-1.393,24.371-1.393,24.371s15.915-33.688,48.542-66.579
						c0,0,0.801-6.01,0.892-16.438C447.491,212.178,420.564,252.602,420.564,252.602z"/>
				</g>
				<g style="opacity:0.52;">
					<path style="fill:#FFF2E1;" d="M366.812,294.187l-16.614,16.1c0.742,0.548,1.544,1.02,2.405,1.382l15.478-15.077
						C367.749,295.738,367.325,294.93,366.812,294.187z"/>
					<path style="fill:#FFF2E1;" d="M346.418,305.586c0.542,1.225,1.29,2.337,2.196,3.299l16.996-16.163
						c-0.843-0.877-1.815-1.629-2.895-2.211L346.418,305.586z"/>
				</g>
				<path style="fill:#D16459;" d="M246.894,108.392l-0.405,2.188l19.584,66.047c0.759-8.295,1.983-15.895,3.355-22.548
					C262.191,140.242,253.203,121.648,246.894,108.392z"/>
				<path style="fill:#D16459;" d="M468.166,177.508l47.293-68.177l-48.851,51.379C467.357,166.748,467.858,172.383,468.166,177.508
					z"/>
				<path style="fill:#2D2D2D;" d="M510.419,75.643c2.225,3.167,3.501,7.017,3.725,10.951c0.106,1.971-0.176,3.969-0.774,5.846
					c-0.556,1.907-1.702,3.572-2.951,5.021c0.366-0.909,0.943-1.673,1.195-2.602c0.16-0.444,0.344-0.876,0.489-1.319l0.349-1.357
					c0.379-1.819,0.594-3.673,0.473-5.535c-0.083-1.86-0.381-3.714-0.809-5.551C511.662,79.268,511.127,77.438,510.419,75.643z"/>
				<path style="fill:#2D2D2D;" d="M234.438,65.828c0.523,1.696,1.108,3.349,1.705,4.983c0.611,1.629,1.282,3.228,2.089,4.741
					c0.786,1.52,1.691,2.986,2.849,4.22c1.153,1.231,2.522,2.275,4.203,2.897c-1.78-0.146-3.512-0.993-4.87-2.216
					c-1.4-1.201-2.418-2.749-3.263-4.336c-0.826-1.605-1.473-3.289-1.912-5.02C234.781,69.374,234.496,67.605,234.438,65.828z"/>
				<path style="fill:#2D2D2D;" d="M232.571,77.033c1.344,2.176,2.569,4.334,4.052,6.274c0.719,0.984,1.532,1.884,2.452,2.634
					c0.924,0.746,1.979,1.324,3.26,1.539c-1.266,0.309-2.672-0.064-3.802-0.755c-1.158-0.68-2.098-1.645-2.882-2.68
					c-0.774-1.048-1.438-2.164-1.948-3.344C233.188,79.526,232.774,78.305,232.571,77.033z"/>
				<path style="fill:#2D2D2D;" d="M231.092,85.53c1.113,1.452,2.21,2.736,3.524,3.779c0.638,0.539,1.337,0.997,2.082,1.401
					c0.738,0.432,1.543,0.73,2.389,1.123c-0.908,0.112-1.867,0.059-2.757-0.244c-0.908-0.261-1.747-0.74-2.483-1.332
					c-0.727-0.603-1.364-1.314-1.836-2.121C231.539,87.335,231.186,86.456,231.092,85.53z"/>
				<path style="fill:#BED9E5;" d="M345.819,172.093c-3.985,1.958-8.006,4.182-11.006,5.905c0.252,0.962,0.517,1.928,0.802,2.885
					c2.785,9.35,6.963,15.915,23.077,16.313c0.428,0.011,0.828-0.002,1.243-0.001C349.005,192.068,346.391,179.401,345.819,172.093z
					"/>
				<path style="fill:#101C35;" d="M344.394,106.83c-7.786,2.059-12.757,4.756-12.757,4.756l1.863,21.029
					c4.736-4.953,11.139-5.79,16.504-5.333C342.534,120.804,342.99,112.306,344.394,106.83z"/>
				<path style="fill:#24365B;" d="M379.643,107.501c1.951,4.089,2.986,10.361-0.437,19.276c4.989,0.771,8.614,2.209,8.614,2.209
					l1.957-16.737C386.409,110.212,383.013,108.665,379.643,107.501z"/>
				<path style="fill:#FCC87C;" d="M411.028,149.422c-4.576,0.398-3.581,17.805-3.581,17.805h2.174
					C408.952,153.922,411.028,149.422,411.028,149.422z"/>
			</g>
			<g>
				<g>
					<path style="fill:#EBB04B;" d="M607.218,164.83c-0.338,0-0.611-0.273-0.611-0.611v-33.025c0-0.337,0.273-0.611,0.611-0.611
						c0.337,0,0.611,0.273,0.611,0.611v33.025C607.828,164.557,607.555,164.83,607.218,164.83z"/>
				</g>
				<path style="fill:#EBB04B;" d="M603.637,182.031c0,0-0.995-17.408,3.581-17.805c4.576-0.398,4.874,17.805,4.874,17.805h-2.885
					l-0.696-5.625l-0.692,5.625H603.637z"/>
				<path style="fill:#070C21;" d="M531.68,91.774l-32.483,22.722c-0.867,0.606-0.786,1.915,0.148,2.411l38.865,20.608l70.178-5.75
					c1.431-0.117,1.799-2.045,0.511-2.68l-75.782-37.42C532.655,91.436,532.104,91.478,531.68,91.774z"/>
				<path style="fill:#2D231A;" d="M520.975,129.358c0,0-6.366,3.382-8.952,14.523c-2.586,11.141,1.591,20.889-1.592,29.443
					c-3.183,8.555-6.366,6.963-7.958,18.303c-1.592,11.34-3.581,15.716-11.539,24.47c-7.958,8.753-7.361,34.218,31.234,37.998
					c38.595,3.78,58.688-14.523,68.237-25.663s-0.398-19.496-1.989-29.642c-1.592-10.146-3.78-12.732-8.356-19.695
					c-4.576-6.963,1.989-13.329-0.199-25.266c-2.188-11.936-7.492-24.271-29.41-27.852
					C528.535,122.395,520.975,129.358,520.975,129.358z"/>
				<path style="fill:#E37565;" d="M523.959,134.331c0,0-7.759,5.57-8.355,15.12c-0.597,9.549,0,11.936,0.796,21.088
					c0.796,9.151,3.183,24.868,22.48,24.868c19.297,0,26.26-16.313,26.26-16.313s8.555-2.586,9.151-12.135
					c0.597-9.549-8.555-12.533-12.533-2.984C561.758,163.974,527.261,160.194,523.959,134.331z"/>
				<path style="fill:#E37565;" d="M565.14,179.093c0,0-6.963,16.313-26.26,16.313l-0.995,14.456c0,0-8.753,27.321-5.836,35.81
					c2.918,8.488,15.385,3.714,24.138-9.284c8.753-12.998,13.263-30.505,13.263-30.505l-4.509-4.509L565.14,179.093z"/>
				<path style="fill:#2D2D2D;" d="M564.978,197.236l0.162-18.142c0,0-6.963,16.313-26.26,16.313l-0.316,4.597
					C538.564,200.004,552.043,196.465,564.978,197.236z"/>
				<path style="fill:#DBECF5;" d="M550.087,173.258c0,0,0,0-6.233,0c-6.234,0-20.027-5.836-21.751-5.836
					c-1.05,0-3.77,1.524-5.739,2.717c0.012,0.136,0.024,0.26,0.036,0.4c0.796,9.151,3.183,24.868,22.48,24.868
					c10.305,0,17.09-4.651,21.178-8.987C551.33,184.33,550.087,173.258,550.087,173.258z"/>
				<path style="fill:#142142;" d="M523.959,134.331c0,0,11.609-13.102,51.859,7.176l4.441-20.903c0,0-24.271-25.663-60.081-8.754
					l-2.851,20.762C517.328,132.613,519.781,128.761,523.959,134.331z"/>
				<path style="fill:#DBECF5;" d="M550.087,173.258c1.721-1.829,3.615-3.441,5.551-5c1.953-1.537,3.95-3.02,6.121-4.284
					c-1.72,1.831-3.613,3.443-5.551,5C554.253,170.51,552.256,171.992,550.087,173.258z"/>
				<g>
					<path style="fill:#2D2D2D;" d="M571.793,165.908c0.176-0.931,0.108-2.014-0.439-2.815c-0.885-1.296-2.95-1.564-4.134-0.53
						c-0.922,0.805-1.29,2.156-1.515,3.312c-0.27,1.387-0.375,2.807-0.408,4.218c-0.019,0.811-0.02,1.625,0.022,2.435
						c0.062,1.173,1.894,1.18,1.832,0c-0.089-1.689-0.043-3.406,0.152-5.085c0.009-0.077,0.018-0.155,0.028-0.232
						c-0.019,0.145,0.001-0.011,0.005-0.034c0.022-0.153,0.045-0.305,0.071-0.457c0.052-0.309,0.113-0.617,0.188-0.921
						c0.063-0.258,0.134-0.514,0.22-0.765c0.042-0.124,0.087-0.246,0.137-0.367c-0.08,0.193,0.079-0.157,0.109-0.214
						c0.048-0.091,0.1-0.18,0.156-0.266c0.036-0.055,0.073-0.108,0.112-0.16c-0.017,0.022-0.133,0.148-0.025,0.04
						c0.07-0.071,0.138-0.141,0.212-0.208c-0.194,0.176,0.047-0.013,0.119-0.058c-0.105,0.064-0.089-0.007,0.065-0.01
						c0.229-0.005-0.363,0.002,0.051-0.006c0.081-0.002,0.162-0.009,0.243-0.009c0.312,0,0.481,0.033,0.708,0.182
						c-0.15-0.099,0.098,0.098,0.148,0.159c-0.168-0.206,0.15,0.351,0.048,0.089c0.046,0.12,0.076,0.242,0.109,0.366
						c0.015,0.054,0.021,0.111,0.031,0.166c-0.044-0.247-0.004-0.037-0.003,0.015c0.006,0.202,0.01,0.4-0.002,0.603
						c-0.007,0.111-0.078,0.359,0.006-0.006c-0.005,0.023-0.007,0.048-0.012,0.072c-0.092,0.486,0.135,0.988,0.64,1.127
						C571.113,166.671,571.701,166.397,571.793,165.908L571.793,165.908z"/>
				</g>
				<g>
					<path style="fill:#EBB04B;" d="M565.555,189.429c-1.996,0-4.04-0.866-5.907-2.557l0.821-0.905
						c3.451,3.126,6.385,2.306,7.825,1.538c2.472-1.318,3.987-4.192,3.603-6.833c-0.73-5.014-3.438-6.24-3.553-6.289l0.471-1.126
						c0.141,0.058,3.454,1.491,4.291,7.24c0.456,3.134-1.327,6.535-4.237,8.086C567.806,189.15,566.688,189.429,565.555,189.429z"/>
				</g>
				<path style="fill:#2D2D2D;" d="M522.102,167.422c0.376-0.968,0.721-1.708,1.012-2.504c0.157-0.389,0.297-0.784,0.44-1.199
					c0.154-0.416,0.278-0.849,0.504-1.337c0.564,0.891,0.557,2.016,0.194,2.976c-0.192,0.479-0.464,0.926-0.831,1.288
					C523.065,167.008,522.627,167.31,522.102,167.422z"/>
				<ellipse style="fill:#2D2D2D;" cx="534.006" cy="159.763" rx="2.984" ry="5.139"/>
				<path style="fill:#2D2D2D;" d="M516.149,167.794c1.263-0.598,2.196-2.57,2.196-4.935c0-2.827-1.326-5.118-2.965-5.136
					C515.455,160.973,515.76,163.664,516.149,167.794z"/>
				<g>
					<path style="fill:#2D2D2D;" d="M516.152,153.793c0.043-0.075,0.096-0.145,0.149-0.214c-0.048,0.062-0.096,0.124-0.143,0.185
						c0.187-0.24,0.406-0.452,0.646-0.639c-0.062,0.048-0.124,0.096-0.185,0.143c0.273-0.209,0.569-0.381,0.885-0.516
						c-0.073,0.031-0.146,0.062-0.219,0.092c0.357-0.149,0.73-0.247,1.113-0.3c-0.081,0.011-0.162,0.022-0.244,0.033
						c0.064-0.008,0.128-0.016,0.192-0.022c0.249-0.024,0.465-0.086,0.648-0.268c0.159-0.159,0.279-0.42,0.268-0.648
						c-0.02-0.456-0.405-0.966-0.916-0.916c-0.842,0.083-1.665,0.308-2.382,0.772c-0.494,0.319-0.901,0.705-1.254,1.171
						c-0.049,0.065-0.099,0.131-0.139,0.201c-0.239,0.416-0.111,1.021,0.329,1.253C515.335,154.352,515.897,154.236,516.152,153.793
						L516.152,153.793z"/>
				</g>
				<g>
					<path style="fill:#2D2D2D;" d="M529.231,150.864c0.674-0.02,1.355,0.015,2.023,0.103c-0.081-0.011-0.162-0.022-0.244-0.033
						c0.067,0.009,0.133,0.019,0.2,0.029c0.252,0.039,0.477,0.042,0.706-0.092c0.19-0.111,0.371-0.329,0.421-0.547
						c0.053-0.234,0.042-0.498-0.092-0.706c-0.121-0.187-0.317-0.385-0.547-0.421c-0.814-0.126-1.643-0.189-2.466-0.165
						c-0.239,0.007-0.477,0.097-0.648,0.268c-0.159,0.159-0.279,0.419-0.268,0.648C528.337,150.433,528.718,150.879,529.231,150.864
						L529.231,150.864z"/>
				</g>
				<g>
					<path style="fill:#EBB04B;" d="M521.309,196.247c-0.583,0.001-1.177-0.069-1.773-0.212c-3.061-0.734-5.235-3.168-5.535-6.199
						c-0.629-6.361,4.026-8.917,4.217-9.021l0.364,1.09c-0.162,0.089-3.912,2.284-3.365,7.81c0.248,2.506,2.055,4.521,4.604,5.132
						c1.969,0.472,4.828-0.278,6.402-2.736l1.028,0.658C525.985,194.747,523.649,196.247,521.309,196.247z"/>
				</g>
				<path style="fill:#142142;" d="M659.638,331.483c-0.398-13.13-17.507-73.211-25.465-89.126
					c-7.958-15.915-64.722-36.473-64.722-36.473s-4.509,17.507-13.263,30.505c-8.753,12.997-21.221,17.772-24.138,9.284
					c-2.918-8.488,5.836-35.81,5.836-35.81s-41.778,15.911-49.338,37.531c-7.56,21.621-28.25,182.764-28.25,182.764
					s8.753,16.711,18.303,20.292l-0.796,22.282h153.981l-3.183-105.837C628.603,366.895,660.036,344.613,659.638,331.483z"/>
				<path style="fill:#959DFC;" d="M556.188,236.389c-8.753,12.997-21.221,17.772-24.138,9.284
					c-1.587-4.616,0.278-14.796,2.31-23.128c0.896-4.934,2.737-10.104,2.737-10.104l-10.75,29.121
					c-0.482-1.877-3.155,24.506-3.536,22.648l-0.018-0.02c0,0-8.23,169.55-8.24,208.543h37.299c0,0,3.512-170.085,14.452-257.022h0
					C564.083,221.791,560.701,229.687,556.188,236.389z"/>
				<path style="fill:#EBB04B;" d="M524.086,269.811l2.46,7.958c0,0,40.377-23.693,66.354-62.326
					c-4.845-2.159-9.39-4.057-13.167-5.58c-5.118,10.026-20.686,36.985-48.712,56.5c0,0-5.733-24.067,2.013-54.476
					c-3.031,1.331-7.229,3.29-11.871,5.775C519.943,227.638,518.565,248.314,524.086,269.811z"/>
				<path style="fill:#7D89E2;" d="M556.481,336.457c-8.252,63.115-26.984,115.808-34.974,136.275h30.345
					c0,0,1.416-68.537,5.248-140.835C556.89,333.397,556.683,334.912,556.481,336.457z"/>
				<path style="fill:#2A3E68;" d="M478.6,450.45c0.716-13.47,1.581-26.929,2.478-40.386c0.895-13.457,1.912-26.906,2.883-40.358
					c1.074-13.444,2.114-26.891,3.288-40.328c1.188-13.435,2.4-26.87,3.951-40.271l-6.022,80.691l-3.167,40.334
					C480.92,423.575,479.819,437.017,478.6,450.45z"/>
				<path style="fill:#2A3E68;" d="M602.143,263.246c1.732,3.925,3.248,7.938,4.696,11.974c1.46,4.033,2.76,8.122,3.965,12.241
					c1.184,4.124,2.282,8.279,3.097,12.501c0.82,4.212,1.527,8.478,1.553,12.777c-0.167-1.062-0.322-2.12-0.463-3.178l-0.603-3.148
					c-0.427-2.092-0.862-4.181-1.405-6.247c-1.025-4.144-2.147-8.266-3.353-12.365c-1.17-4.109-2.435-8.193-3.681-12.286
					L602.143,263.246z"/>
				<path style="fill:#FFFAE3;" d="M545.843,340.833c0,0-9.48-31.632-14.389-47.547l28.516-4.178c0,0-5.581,69.033,17.6,115.585
					c0,0-8.601,12.736-25.933,4.777C551.637,409.47,557.195,378.456,545.843,340.833z"/>
				<path style="fill:#EAE3C3;" d="M544.202,335.366c1.013,3.371,1.641,5.467,1.641,5.467c5.857,19.41,7.208,37.048,7.148,49.588
					c3.706-4.708,8.644-9.142,14.977-11.346c-5.19-18.742-7.363-38.366-8.17-54.488
					C554.919,329.297,549.003,332.902,544.202,335.366z"/>
				<path style="fill:#E37565;" d="M579.265,333.87c0,0-9.549-2.188-14.722-2.785c-5.172-0.597-8.063,5.371-8.063,5.371
					s-8.848,0.199-10.638,4.377c-1.791,4.178-0.398,6.167-0.995,10.146c-0.597,3.979-1.591,4.974,0,8.157
					c1.592,3.183-0.199,4.775,0.796,7.162c0.995,2.387,1.791,11.34,31.632,1.79C577.276,368.088,577.872,352.969,579.265,333.87z"/>
				<path style="fill:#E37565;" d="M476.028,450.853c0-0.57,0.005-1.127,0.015-1.673c-4.051-2.475-7.815-6.909-10.648-10.876
					c-0.289,3.633-0.624,7.861-0.79,10.021c-0.326,4.241,2.283,11.417,3.996,16.473c1.713,5.056,2.528,6.361,4.159,6.198
					c1.631-0.163,1.223-2.773,1.223-2.773s0.897,0.734,1.794-1.305c0.897-2.039-0.897-9.623-0.897-9.623
					S476.035,457.459,476.028,450.853z"/>
				<path style="fill:#142142;" d="M469.09,442.454c0.784,2.92,1.337,5.866,1.939,8.794c0.293,1.463,0.586,2.931,0.967,4.348
					c0.212,0.712,0.399,1.359,0.968,1.784c0.257,0.216,0.578,0.344,0.925,0.329c0.342-0.031,0.697-0.175,0.991-0.412
					c-0.224,0.306-0.554,0.549-0.952,0.652c-0.399,0.097-0.849,0.013-1.21-0.193c-0.357-0.22-0.662-0.475-0.891-0.855
					c-0.221-0.357-0.371-0.714-0.508-1.075c-0.542-1.443-0.875-2.918-1.187-4.395C469.553,448.467,469.161,445.478,469.09,442.454z"
					/>
				<path style="fill:#142142;" d="M473.983,468.224c-0.641-1.807-1.009-3.657-1.309-5.517c-0.273-1.864-0.477-3.739-0.404-5.655
					c0.644,1.807,1.011,3.657,1.309,5.517C473.85,464.432,474.054,466.307,473.983,468.224z"/>
				<g>
					<path style="fill:#070C21;" d="M463.439,435.43c3.388,5.221,9.113,12.753,15.162,15.021l7.805-111.142L463.439,435.43z"/>
					<path style="fill:#070C21;" d="M583.544,398.76c30.946-2.101,45.889-4.266,45.889-4.266v0l-0.83-27.599L583.544,398.76z"/>
				</g>
				<path style="fill:#D16459;" d="M545.39,365.436c0.049,0.278,0.13,0.564,0.254,0.862c0.995,2.387,1.791,11.34,31.632,1.79
					c0,0,0.102-2.583,0.32-6.954C567.681,364.179,555.625,365.218,545.39,365.436z"/>
				<path style="fill:#2A3E68;" d="M628.603,310.196c-1.436-0.334-2.906-0.526-4.375-0.557c-1.467-0.026-2.945,0.084-4.348,0.486
					c-1.412,0.394-2.644,1.195-3.715,2.185c-0.525,0.495-1.016,1.037-1.346,1.655c-0.341,0.587-0.46,1.376-0.15,1.853l0.164,0.253
					l-0.258,0.115l-34.302,15.338l0.295-0.339l-0.789,2.829l0.017-0.085c-0.551,5.406-0.947,10.844-1.226,16.277
					c-0.28,5.436-0.417,10.877-0.385,16.314c0.028,5.435,0.24,10.873,0.875,16.256c0.336,2.686,0.777,5.361,1.456,7.964
					c0.688,2.586,1.601,5.161,3.144,7.263l-0.715-0.109l22.785-15.564l22.874-15.436l-22.485,15.997l-22.574,15.869l-0.417,0.293
					l-0.298-0.403c-1.708-2.305-2.643-4.974-3.37-7.628c-0.711-2.67-1.171-5.385-1.525-8.105
					c-0.669-5.447-0.909-10.921-0.965-16.388c-0.03-5.468,0.153-10.931,0.455-16.384c0.307-5.455,0.73-10.894,1.311-16.334
					l0.005-0.043l0.012-0.043l0.803-2.825l0.069-0.242l0.226-0.097l34.531-14.817l-0.094,0.368
					c-0.487-0.819-0.214-1.696,0.155-2.352c0.384-0.677,0.915-1.227,1.471-1.728c1.115-0.985,2.438-1.798,3.895-2.164
					c1.449-0.374,2.949-0.455,4.425-0.375C625.712,309.574,627.178,309.815,628.603,310.196z"/>
				<path style="fill:#BED9E5;" d="M523.572,167.761c-0.704-0.212-1.218-0.339-1.47-0.339c-1.05,0-3.77,1.524-5.739,2.717
					c0.012,0.136,0.024,0.26,0.036,0.4c0.752,8.646,2.933,23.145,19.445,24.72C524.74,188.091,523.369,175.081,523.572,167.761z"/>
				<path style="fill:#101C35;" d="M529.824,108.197c-3.109,0.89-6.327,2.088-9.645,3.654l-2.851,20.762
					c0,0,2.453-3.852,6.631,1.718c0,0,0.477-0.529,1.546-1.207C523.216,125.907,522.407,116.172,529.824,108.197z"/>
				<path style="fill:#24365B;" d="M569.748,112.842c2.439,5.072,2.972,12.826-1.78,24.673c-0.035,0.087-0.074,0.166-0.109,0.252
					c2.524,1.101,5.166,2.333,7.96,3.741l4.441-20.903C580.26,120.604,576.488,116.632,569.748,112.842z"/>
				<path style="fill:#FCC87C;" d="M607.217,164.226c-4.576,0.398-3.581,17.805-3.581,17.805h2.174
					C605.141,168.725,607.217,164.226,607.217,164.226z"/>
			</g>
			<g>
				<g>
					<path style="fill:#EBB04B;" d="M127.746,101.771c0,9.634,0,19.269,0,28.903c0,1.374,0,2.747,0,4.121
						c0,1.179,1.832,1.181,1.832,0c0-9.634,0-19.269,0-28.903c0-1.374,0-2.747,0-4.121
						C129.578,100.592,127.746,100.59,127.746,101.771L127.746,101.771z"/>
				</g>
				<path style="fill:#EBB04B;" d="M125.081,152.607c0,0-0.995-17.407,3.581-17.805c4.576-0.398,4.874,17.805,4.874,17.805h-2.885
					l-0.696-5.625l-0.692,5.625H125.081z"/>
				<path style="fill:#070C21;" d="M128.51,102.506l50.544,10.553c0.163,0.034,0.332,0.034,0.495,0l50.932-10.557
					c1.139-0.236,1.327-1.784,0.277-2.286L180.025,75.96c-0.332-0.159-0.717-0.159-1.048,0l-50.742,24.26
					C127.185,100.722,127.372,102.269,128.51,102.506z"/>
				<path style="fill:#2D231A;" d="M206.954,118.283c0,0-17.507-2.984-27.653,4.775c0,0-5.371-6.963-28.648-3.581
					c0,0-9.748,11.539-2.984,32.427c6.764,20.889,50.73,10.146,50.73,10.146s10.345-1.989,14.722-16.91
					C217.498,130.22,210.137,121.268,206.954,118.283z"/>
				<path style="fill:#142142;" d="M150.654,119.477l-1.194-18.899c0,0,29.443-18.701,59.683,0l-2.188,17.706
					c0,0-17.507-2.984-27.653,4.775C179.301,123.058,173.93,116.095,150.654,119.477z"/>
				<path style="fill:#E37565;" d="M193.952,117.971c-4.967,0.501-10.442,1.868-14.651,5.087c0,0-2.176-2.807-9.725-3.99
					c-4.823,2.409-13.183,8.831-18.326,25.476c0,0,3.382,20.69,6.764,30.438c3.382,9.748,9.947,13.13,22.48,13.329
					c12.533,0.199,19.894-1.592,24.669-17.507s4.775-24.271,4.775-24.271S204.743,127.285,193.952,117.971z"/>
				<path style="fill:#E37565;" d="M152.057,149.189c-0.001,0-3.794-3.849-6.776,1.721c-2.982,5.57,3.033,21.028,10.271,15.289v0
					C154.106,160.173,152.835,153.512,152.057,149.189z"/>
				<path style="fill:#E37565;" d="M215.141,150.91c-1.808-3.377-3.909-3.288-5.288-2.698c-0.211,2.815-0.967,9.173-3.615,18.832
					C212.839,170.004,217.934,156.125,215.141,150.91z"/>
				<path style="fill:#DBECF5;" d="M180.594,155.883c-4.128,0.3-18.395,6.714-25.154,9.846c0.819,3.452,1.696,6.722,2.574,9.253
					c3.382,9.748,9.947,13.13,22.48,13.329c12.533,0.199,19.894-1.592,24.669-17.507c0.496-1.653,0.929-3.205,1.327-4.694
					C200.273,162.996,184.924,155.568,180.594,155.883z"/>
				<path style="fill:#E37565;" d="M180.495,188.311c-4.829-0.077-8.765-0.633-11.981-1.837l-0.014,0.001v13.972
					c0,0,0.434,13.883,10.801,15.319c12.931,1.79,12.931-15.915,12.931-15.915v-12.697
					C188.92,188.188,185.051,188.383,180.495,188.311z"/>
				<path style="fill:#2D2D2D;" d="M192.233,187.152c-3.313,1.036-7.182,1.231-11.738,1.159c-4.829-0.077-8.765-0.633-11.981-1.837
					l-0.014,0.001v13.972C185.351,199.651,192.233,187.152,192.233,187.152z"/>
				<path style="fill:#2D2D2D;" d="M167.564,150.706c0,2.854-1.336,5.168-2.984,5.168s-2.984-2.314-2.984-5.168
					s1.336-5.168,2.984-5.168S167.564,147.852,167.564,150.706z"/>
				<path style="fill:#2D2D2D;" d="M199.036,150.706c0,2.854-1.336,5.168-2.984,5.168c-1.648,0-2.984-2.314-2.984-5.168
					s1.336-5.168,2.984-5.168C197.7,145.538,199.036,147.852,199.036,150.706z"/>
				<path style="fill:#2D2D2D;" d="M180.594,155.883c-0.273-0.828-0.317-1.607-0.326-2.39c0.018-0.785,0.065-1.55,0.326-2.384
					c0.459,0.749,0.582,1.58,0.589,2.39C181.164,154.309,181.038,155.126,180.594,155.883z"/>
				<g>
					<path style="fill:#2D2D2D;" d="M157.711,144.31c0.09-0.198,0.197-0.388,0.307-0.576c0.12-0.206,0.248-0.408,0.382-0.606
						c0.084-0.125,0.171-0.247,0.26-0.369c0.041-0.056,0.083-0.111,0.125-0.166c-0.118,0.156,0.037-0.045,0.082-0.1
						c0.464-0.569,1.073-1.18,1.588-1.581c0.611-0.476,1.469-0.954,2.208-1.202c1.154-0.387,2.291-0.458,3.509-0.317
						c0.492,0.057,0.916-0.462,0.916-0.916c0-0.543-0.422-0.859-0.916-0.916c-3.982-0.462-7.545,1.698-9.598,5.022
						c-0.16,0.259-0.317,0.526-0.443,0.803c-0.204,0.45-0.129,0.986,0.329,1.253C156.851,144.868,157.506,144.762,157.711,144.31
						L157.711,144.31z"/>
				</g>
				<g>
					<path style="fill:#2D2D2D;" d="M204.453,143.385c-0.37-0.814-0.924-1.563-1.489-2.247c-1.198-1.45-2.768-2.596-4.557-3.196
						c-1.279-0.429-2.661-0.537-3.996-0.382c-0.491,0.057-0.916,0.38-0.916,0.916c0,0.451,0.421,0.973,0.916,0.916
						c2.036-0.236,3.871,0.196,5.511,1.367c0.258,0.184,0.517,0.398,0.829,0.693c0.28,0.264,0.545,0.543,0.795,0.836
						c0.106,0.124,0.208,0.25,0.309,0.377c-0.097-0.123-0.018-0.024,0.028,0.039c0.053,0.072,0.106,0.144,0.157,0.217
						c0.155,0.219,0.302,0.443,0.441,0.672c0.14,0.232,0.278,0.47,0.391,0.717c0.204,0.451,0.857,0.56,1.253,0.329
						C204.587,144.367,204.658,143.837,204.453,143.385L204.453,143.385z"/>
				</g>
				<path style="fill:#142142;" d="M192.233,201.183l-0.063-0.002c-0.304,4.077-2.11,16.073-12.868,14.584
					c-10.368-1.436-10.801-15.319-10.801-15.319l-12.948,5.703l24.815,51.46l25.133-50.76L192.233,201.183z"/>
				<g>
					<path style="fill:#142142;" d="M283.083,393.155c0,0-24.404-150.135-36.075-164.127
						c-11.671-13.992-41.509-22.179-41.509-22.179l-25.133,50.76l-24.815-51.46c-48.485,14.059-46.477,18.833-54.434,51.46
						S71.616,375.648,71.616,375.648c7.104,29.709,35.867,32.892,35.867,32.892l-4.775,64.192h152.788l-2.653-56.765
						C268.759,410.662,283.083,393.155,283.083,393.155z"/>
				</g>
				<polygon style="fill:#2A3E68;" points="180.366,257.609 180.286,284.504 180.08,311.396 179.468,365.179 178.573,418.958 
					178.025,445.846 177.349,472.732 177.428,445.837 177.634,418.945 178.248,365.162 179.145,311.383 179.692,284.495 				"/>
				<path style="fill:#EBB04B;" d="M179.878,292.43l41.285-80.038c-8.597-3.601-15.663-5.544-15.663-5.544l-25.133,50.76
					l-24.815-51.46c-5.773,1.674-10.823,3.215-15.266,4.689L179.878,292.43z"/>
				<path style="fill:#E37565;" d="M99.404,424.323c-0.008-7.862,0.628-14.5,0.97-17.503c-4.974-1.653-11.749-4.819-17.64-10.738
					c-0.451,5.652-1.498,18.787-1.909,24.129c-0.53,6.897,3.714,18.568,6.499,26.791c2.785,8.223,4.111,10.345,6.764,10.08
					c2.653-0.265,1.989-4.509,1.989-4.509s1.459,1.194,2.918-2.122c1.459-3.316-1.459-15.65-1.459-15.65
					S99.414,435.065,99.404,424.323z"/>
				<path style="fill:#E37565;" d="M277.158,399.521c-4.256,4.195-10.443,9.584-17.359,13.361c0.229,3.184,0.42,7.124,0.416,11.441
					c-0.011,10.743,1.867,10.478,1.867,10.478s-2.918,12.334-1.459,15.65c1.459,3.316,2.918,2.122,2.918,2.122
					s-0.663,4.244,1.99,4.509c2.652,0.265,3.979-1.857,6.764-10.08c2.785-8.223,7.029-19.894,6.499-26.791
					C278.452,415.773,277.672,405.958,277.158,399.521z"/>
				<g>
					<path style="fill:#2D2D2D;" d="M148.288,156.127c0.199-0.957,0.551-2.162,1.321-2.813c0.148-0.125,0.357-0.164,0.454-0.229
						c-0.072,0.048-0.24-0.063-0.233-0.058c0.061,0.038,0.133,0.108-0.068-0.058c0.015,0.012,0.101,0.096,0.098,0.1
						c-0.013,0.014-0.11-0.203,0.028,0.057c0.045,0.084,0.091,0.166,0.133,0.251c0.114,0.226-0.014-0.062,0.062,0.147
						c0.051,0.14,0.101,0.281,0.145,0.423c0.801,2.557,0.961,5.312,1.157,7.973c0.057,0.772,0.108,1.546,0.142,2.32
						c0.051,1.174,1.884,1.181,1.832,0c-0.103-2.351-0.307-4.704-0.625-7.035c-0.24-1.767-0.755-7.376-3.839-5.62
						c-1.365,0.777-2.07,2.587-2.376,4.056C146.282,156.79,148.047,157.282,148.288,156.127L148.288,156.127z"/>
				</g>
				<g>
					<path style="fill:#2D2D2D;" d="M215.359,154.844c-0.185-0.933-0.745-1.913-1.581-2.395c-0.692-0.399-1.638-0.419-2.348-0.053
						c-0.435,0.225-0.755,0.609-1.019,1.012c-0.644,0.986-0.985,2.204-1.281,3.332c-0.325,1.24-0.569,2.502-0.776,3.767
						c-0.124,0.755-0.236,1.513-0.326,2.273c-0.058,0.492,0.463,0.916,0.916,0.916c0.543,0,0.858-0.422,0.916-0.916
						c0.015-0.13,0.033-0.259,0.049-0.389c0.01-0.082-0.034,0.242,0.002-0.013c0.012-0.083,0.023-0.166,0.035-0.25
						c0.028-0.199,0.058-0.397,0.089-0.596c0.165-1.07,0.357-2.136,0.593-3.193c0.233-1.042,0.556-2.275,0.919-3.152
						c-0.023,0.055,0.088-0.198,0.117-0.258c0.043-0.09,0.088-0.18,0.135-0.268c0.05-0.092,0.102-0.184,0.158-0.273
						c0.029-0.046,0.206-0.288,0.129-0.194c-0.091,0.111,0.091-0.087,0.117-0.12c0.119-0.148-0.066-0.008,0.01-0.018
						c0.024-0.003,0.055-0.04,0.08-0.049c0.16-0.055-0.191,0.054-0.076,0.029c0.206-0.044,0.204-0.06,0.369-0.069
						c0.124-0.006,0.161,0.011,0.222,0.036c-0.002-0.001,0.219,0.155,0.159,0.1c0.04,0.037,0.077,0.077,0.117,0.114
						c0.125,0.118,0.035,0.029,0.06,0.065c0.075,0.107,0.141,0.217,0.202,0.333c0.023,0.044,0.043,0.089,0.066,0.133
						c0.094,0.18-0.003-0.017,0.015,0.034c0.032,0.091,0.065,0.18,0.093,0.272c0.027,0.091,0.053,0.182,0.072,0.275
						c0.096,0.485,0.675,0.764,1.127,0.64C215.225,155.832,215.455,155.331,215.359,154.844L215.359,154.844z"/>
				</g>
				<path style="fill:#142142;" d="M88.12,410.662c1.17,4.765,2.046,9.562,3.021,14.329c0.479,2.381,0.962,4.77,1.605,7.078
					c0.351,1.154,0.685,2.236,1.638,2.922c0.434,0.35,0.974,0.551,1.546,0.515c0.564-0.061,1.138-0.31,1.606-0.705
					c-0.375,0.488-0.916,0.868-1.554,1.025c-0.642,0.146-1.354,0.003-1.927-0.335c-0.565-0.356-1.054-0.775-1.41-1.38
					c-0.221-0.286-0.296-0.575-0.444-0.864c-0.137-0.289-0.262-0.581-0.359-0.874c-0.858-2.342-1.393-4.741-1.899-7.141
					C89.001,420.42,88.34,415.566,88.12,410.662z"/>
				<path style="fill:#142142;" d="M96.077,452.572c-0.939-2.956-1.512-5.967-1.996-8.993c-0.447-3.031-0.803-6.076-0.789-9.177
					c0.942,2.955,1.515,5.967,1.996,8.993C95.733,446.426,96.088,449.471,96.077,452.572z"/>
				<path style="fill:#142142;" d="M271.499,410.662c-0.22,4.904-0.881,9.758-1.825,14.57c-0.506,2.4-1.04,4.799-1.899,7.141
					c-0.097,0.293-0.222,0.584-0.359,0.874c-0.147,0.29-0.223,0.579-0.444,0.864c-0.356,0.605-0.845,1.023-1.41,1.38
					c-0.572,0.337-1.285,0.481-1.927,0.335c-0.639-0.157-1.18-0.537-1.554-1.025c0.467,0.396,1.041,0.645,1.606,0.705
					c0.572,0.036,1.112-0.165,1.546-0.515c0.953-0.686,1.287-1.768,1.638-2.922c0.643-2.307,1.126-4.697,1.605-7.078
					C269.452,420.224,270.328,415.427,271.499,410.662z"/>
				<path style="fill:#142142;" d="M263.541,452.572c-0.01-3.101,0.345-6.146,0.789-9.177c0.481-3.026,1.054-6.037,1.996-8.993
					c0.013,3.102-0.342,6.147-0.789,9.177C265.053,446.605,264.48,449.617,263.541,452.572z"/>
				<path style="fill:#101C35;" d="M163.946,94.544c-8.859,2.461-14.486,6.034-14.486,6.034l1.194,18.899
					c7.32-1.063,12.866-1.103,17.034-0.659C159.409,110.044,161.747,99.905,163.946,94.544z"/>
				<g>
					<path style="fill:#070C21;" d="M95.133,404.73c6.814,3.196,12.35,3.81,12.35,3.81l14.656-110.515L95.133,404.73z"/>
					<path style="fill:#070C21;" d="M107.483,408.54l-4.775,64.192h74.641C107.691,472.732,107.483,408.54,107.483,408.54z"/>
					<path style="fill:#070C21;" d="M241.943,292.43l10.901,123.537c15.915-5.305,30.239-22.812,30.239-22.812
						C256.027,405.887,241.943,292.43,241.943,292.43z"/>
				</g>
				<path style="fill:#2A3E68;" d="M127.643,261.271c-1.43,12.307-2.993,24.595-4.577,36.881l-4.899,36.836l-5.179,36.798
					l-2.689,18.385l-2.816,18.368l2.223-18.449l2.351-18.432l4.901-36.836l5.181-36.798
					C123.916,285.766,125.713,273.509,127.643,261.271z"/>
				<path style="fill:#2A3E68;" d="M238.52,261.271c1.444,12.868,2.756,25.749,4.047,38.631l3.723,38.661l3.441,38.687l1.621,19.353
					l1.492,19.365l-2.089-19.31l-1.96-19.321l-3.721-38.661l-3.439-38.687C240.539,287.088,239.463,274.186,238.52,261.271z"/>
				<path style="fill:#D16459;" d="M99.699,414.674c0.21-3.449,0.486-6.204,0.675-7.855c-4.974-1.653-11.749-4.819-17.64-10.738
					c-0.335,4.193-0.997,12.497-1.484,18.689C84.939,413.347,90.81,412.529,99.699,414.674z"/>
				<path style="fill:#D16459;" d="M277.949,409.461c-0.275-3.466-0.56-7.044-0.79-9.94c-4.256,4.195-10.443,9.584-17.359,13.361
					c0.15,2.079,0.282,4.484,0.355,7.101C263.798,416.045,271.229,409.089,277.949,409.461z"/>
				<path style="fill:#24365B;" d="M205.295,98.415c-0.7,4.992-3.486,13.756-13.972,19.9c8.066-1.32,15.632-0.031,15.632-0.031
					l2.188-17.706C207.857,99.783,206.575,99.079,205.295,98.415z"/>
				<path style="fill:#BED9E5;" d="M192.233,187.152c-21.82-0.306-22.85-17.932-21.637-28.055
					c-5.356,2.153-11.408,4.895-15.156,6.632c0.819,3.452,1.696,6.722,2.574,9.253c3.382,9.748,9.947,13.13,22.48,13.329
					C185.051,188.383,188.92,188.188,192.233,187.152L192.233,187.152z"/>
				<g>
					<g>
						<path style="fill:#142142;" d="M164.58,162.474c-7.504,0-13.608-6.105-13.608-13.608c0-7.504,6.105-13.608,13.608-13.608
							s13.608,6.105,13.608,13.608C178.188,156.369,172.083,162.474,164.58,162.474z M164.58,136.479
							c-6.83,0-12.387,5.557-12.387,12.387c0,6.83,5.557,12.387,12.387,12.387s12.387-5.557,12.387-12.387
							C176.967,142.035,171.41,136.479,164.58,136.479z"/>
					</g>
					<g>
						<path style="fill:#142142;" d="M196.941,162.474c-7.504,0-13.608-6.105-13.608-13.608c0-7.504,6.105-13.608,13.608-13.608
							s13.608,6.105,13.608,13.608C210.549,156.369,204.444,162.474,196.941,162.474z M196.941,136.479
							c-6.83,0-12.387,5.557-12.387,12.387c0,6.83,5.557,12.387,12.387,12.387s12.387-5.557,12.387-12.387
							C209.328,142.035,203.771,136.479,196.941,136.479z"/>
					</g>
					<g>
						<path style="fill:#142142;" d="M178.06,149.24l-0.965-0.748c0.071-0.091,1.754-2.237,3.971-2.175
							c1.27,0.038,2.407,0.779,3.381,2.205l-1.008,0.689c-0.742-1.085-1.552-1.648-2.41-1.673
							C179.447,147.498,178.074,149.222,178.06,149.24z"/>
					</g>
				</g>
				<path style="fill:#FCC87C;" d="M129.398,134.914c-0.233-0.09-0.476-0.135-0.736-0.112c-4.576,0.398-3.581,17.805-3.581,17.805
					h2.262C126.414,138.417,128.723,135.464,129.398,134.914z"/>
			</g>
		</g>
	</g>
</g>
</svg>
